<?xml version="1.0" standalone="no"?>
<!DOCTYPE svg PUBLIC "-//W3C//DTD SVG 20010904//EN"
 "http://www.w3.org/TR/2001/REC-SVG-20010904/DTD/svg10.dtd">
<svg version="1.0" xmlns="http://www.w3.org/2000/svg"
 width="750.000000pt" height="750.000000pt" viewBox="0 0 750.000000 750.000000"
 preserveAspectRatio="xMidYMid meet">

<g transform="translate(0.000000,750.000000) scale(0.100000,-0.100000)"
fill="#000000" stroke="none">
<path d="M3531 5790 c-722 -70 -1366 -459 -1763 -1065 -188 -286 -314 -618
-365 -961 -22 -148 -24 -505 -4 -639 79 -540 307 -1002 676 -1370 360 -360
821 -592 1335 -672 161 -25 519 -25 680 0 514 80 975 312 1335 672 369 368
597 830 676 1370 20 134 18 491 -4 639 -142 953 -836 1726 -1761 1961 -72 18
-183 40 -246 50 -137 19 -428 27 -559 15z m292 -1575 c130 -27 245 -112 296
-219 34 -69 54 -181 46 -259 -16 -167 -93 -290 -225 -357 -86 -44 -135 -52
-357 -57 l-213 -5 0 456 0 456 193 0 c128 0 215 -5 260 -15z m980 0 c87 -18
176 -66 228 -122 150 -162 153 -459 7 -618 -58 -64 -113 -99 -201 -128 -52
-17 -96 -21 -274 -25 l-213 -4 0 456 0 456 193 0 c128 0 215 -5 260 -15z
m-1746 -435 c89 -239 162 -441 162 -448 1 -10 -21 -12 -90 -10 l-91 3 -32 90
-32 90 -183 0 -183 0 -32 -90 -32 -90 -92 -3 c-51 -1 -92 1 -92 6 0 6 239 654
320 867 10 26 10 26 112 23 l103 -3 162 -435z m-505 -917 c9 -10 28 -43 43
-73 119 -241 369 -481 616 -594 312 -142 683 -160 991 -50 321 115 592 354
741 651 23 44 44 74 58 78 27 9 219 -62 219 -81 0 -18 -77 -164 -132 -249
-231 -360 -592 -604 -1028 -696 -152 -32 -419 -33 -575 -2 -126 26 -277 74
-385 125 -303 141 -573 405 -739 721 -23 43 -41 86 -41 97 0 13 17 25 68 44
37 14 78 30 92 35 37 15 55 13 72 -6z"/>
<path d="M3550 3781 l0 -291 109 0 c160 0 232 32 288 127 23 40 28 61 31 139
7 143 -32 225 -130 279 -49 28 -62 30 -175 33 l-123 4 0 -291z"/>
<path d="M4530 3780 l0 -292 123 4 c106 3 128 6 171 28 100 51 141 137 134
279 -5 94 -24 144 -74 195 -53 53 -106 70 -236 74 l-118 4 0 -292z"/>
<path d="M2722 3837 c-34 -100 -62 -185 -62 -189 0 -5 59 -8 130 -8 72 0 130
3 130 8 0 13 -125 372 -130 372 -3 0 -33 -82 -68 -183z"/>
</g>
</svg>
